HIERARCHY
ROOT Hips
{
	OFFSET 0.000000 0.000000 0.000000
	CHANNELS 6 Xposition Yposition Zposition Xrotation Yrotation Zrotation
	JOINT LeftUpLeg_virtual
	{
		OFFSET 0.000000 0.000000 0.000000
		CHANNELS 3 Xrotation Yrotation Zrotation
		JOINT LeftUpLeg
		{
			OFFSET 11.394100 -6.187798 -0.413800
			CHANNELS 3 Xrotation Yrotation Zrotation
			JOINT LeftLeg
			{
				OFFSET 0.430247 -32.302673 3.732800
				CHANNELS 3 Xrotation Yrotation Zrotation
				JOINT LeftFoot
				{
					OFFSET -0.430247 -48.264931 -6.423300
					CHANNELS 3 Xrotation Yrotation Zrotation
					JOINT LeftToeBase
					{
						OFFSET 4.230900 -16.068199 23.438400
						CHANNELS 3 Xrotation Yrotation Zrotation
						JOINT LeftToe_End
						{
							OFFSET 4.510700 0.695400 19.974600
							CHANNELS 3 Xrotation Yrotation Zrotation
							End Site
							{
								OFFSET 0 0 0
							}
						}
					}
				}
			}
		}
	}
	JOINT RightUpLeg_virtual
	{
		OFFSET 0.000000 0.000000 0.000000
		CHANNELS 3 Xrotation Yrotation Zrotation
		JOINT RightUpLeg
		{
			OFFSET -11.333700 -6.187798 -0.413800
			CHANNELS 3 Xrotation Yrotation Zrotation
			JOINT RightLeg
			{
				OFFSET -0.430392 -32.302628 3.733000
				CHANNELS 3 Xrotation Yrotation Zrotation
				JOINT RightFoot
				{
					OFFSET 0.430392 -48.264973 -6.423500
					CHANNELS 3 Xrotation Yrotation Zrotation
					JOINT RightToeBase
					{
						OFFSET -4.230900 -16.068199 23.438400
						CHANNELS 3 Xrotation Yrotation Zrotation
						JOINT RightToe_End
						{
							OFFSET -4.510700 0.695400 19.974600
							CHANNELS 3 Xrotation Yrotation Zrotation
							End Site
							{
								OFFSET 0 0 0
							}
						}
					}
				}
			}
		}
	}
	JOINT Spine_virtual
	{
		OFFSET 0.000000 0.000000 0.000000
		CHANNELS 3 Xrotation Yrotation Zrotation
		JOINT Spine
		{
			OFFSET -0.002400 12.777504 0.315300
			CHANNELS 3 Xrotation Yrotation Zrotation
			JOINT Spine1
			{
				OFFSET -0.002067 5.816869 0.032633
				CHANNELS 3 Xrotation Yrotation Zrotation
				JOINT Spine1_split
				{
					OFFSET -0.002067 5.816869 0.032633
					CHANNELS 3 Xrotation Yrotation Zrotation
					JOINT Spine2
					{
						OFFSET -0.002067 5.816869 0.032633
						CHANNELS 3 Xrotation Yrotation Zrotation
						JOINT Neck_virtual
						{
							OFFSET 0.000000 0.000000 0.000000
							CHANNELS 3 Xrotation Yrotation Zrotation
							JOINT Neck
							{
								OFFSET -0.003700 21.199493 -0.826900
								CHANNELS 3 Xrotation Yrotation Zrotation
								JOINT Head
								{
									OFFSET 0.000000 20.442200 4.834800
									CHANNELS 3 Xrotation Yrotation Zrotation
									JOINT HeadTop_End
									{
										OFFSET 0.000000 34.668396 4.968400
										CHANNELS 3 Xrotation Yrotation Zrotation
										End Site
										{
											OFFSET 0 0 0
										}
									}
								}
							}
						}
						JOINT LeftShoulder_virtual
						{
							OFFSET 0.000000 0.000000 0.000000
							CHANNELS 3 Xrotation Yrotation Zrotation
							JOINT LeftShoulder
							{
								OFFSET 3.288150 8.794197 -1.372250
								CHANNELS 3 Xrotation Yrotation Zrotation
								JOINT LeftShoulder_split
								{
									OFFSET 3.288150 8.794197 -1.372250
									CHANNELS 3 Xrotation Yrotation Zrotation
									JOINT LeftArm
									{
										OFFSET 11.953299 -2.279007 -0.146200
										CHANNELS 3 Xrotation Yrotation Zrotation
										JOINT LeftForeArm
										{
											OFFSET 18.448900 0.000000 0.000000
											CHANNELS 3 Xrotation Yrotation Zrotation
											JOINT LeftHand
											{
												OFFSET 29.527798 0.000000 0.000000
												CHANNELS 3 Xrotation Yrotation Zrotation
												End Site
												{
													OFFSET 0 0 0
												}
											}
										}
									}
								}
							}
						}
						JOINT RightShoulder_virtual
						{
							OFFSET 0.000000 0.000000 0.000000
							CHANNELS 3 Xrotation Yrotation Zrotation
							JOINT RightShoulder
							{
								OFFSET -3.249400 8.794197 -1.372250
								CHANNELS 3 Xrotation Yrotation Zrotation
								JOINT RightShoulder_split
								{
									OFFSET -3.249400 8.794197 -1.372250
									CHANNELS 3 Xrotation Yrotation Zrotation
									JOINT RightArm
									{
										OFFSET -11.953299 -2.279007 -0.146200
										CHANNELS 3 Xrotation Yrotation Zrotation
										JOINT RightForeArm
										{
											OFFSET -18.448900 0.000000 0.000000
											CHANNELS 3 Xrotation Yrotation Zrotation
											JOINT RightHand
											{
												OFFSET -29.527802 0.000000 0.000000
												CHANNELS 3 Xrotation Yrotation Zrotation
												End Site
												{
													OFFSET 0 0 0
												}
											}
										}
									}
								}
							}
						}
					}
				}
			}
		}
	}
}
MOTION
Frames: 11
Frame Time: 0.03333333
3.731732 79.428108 14.387997 0.000000 0.000000 0.000000 -0.638300 -35.952190 -3.433127 -51.681760 -1.804726 22.001308 64.120764 2.981688 -0.370468 -10.627552 -9.888254 -9.696195 -3.557974 -0.323166 1.861431 0.000000 0.000000 0.000000 -1.293817 -32.128978 -3.420063 -10.464964 -15.379983 -24.547179 51.028022 -0.570092 -7.197302 -19.133966 -15.358905 27.244190 -11.041461 0.000340 0.754706 0.000000 0.000000 0.000000 -0.574964 -29.686799 -3.296867 12.112311 8.820809 -4.227260 2.082680 2.107882 -2.014818 1.031728 -0.278314 0.859284 0.000000 0.000000 0.000000 3.854409 1.388217 -1.433394 -11.270024 10.239890 6.282148 0.811744 8.764059 -0.787348 0.000000 0.000000 0.000000 2.788469 1.854499 -1.558759 0.744689 0.012583 -5.309484 -1.722430 -3.082535 -0.012813 -59.307837 2.582555 -46.133212 -179.546180 -73.144824 -178.884102 0.000000 0.000000 0.000000 2.817801 1.313502 -1.817742 3.468074 22.699239 -4.586290 -7.976041 -4.011333 2.260620 -42.638480 18.071233 48.678775 -178.594461 62.392542 177.605573 0.000000 0.000000 0.000000 
3.968386 78.761887 12.396221 0.000000 0.000000 0.000000 -1.921803 -39.156225 -3.565360 -50.958429 -1.367191 23.511424 64.810456 3.171142 -0.824917 -9.497967 -8.698512 -10.415394 -3.997977 -0.420201 2.173751 0.000000 0.000000 0.000000 -2.647576 -35.243762 -3.509443 -12.051126 -14.909931 -25.699777 53.201204 -1.974192 -6.334054 -21.870915 -17.025242 27.317965 -7.346836 -0.157893 -0.274705 0.000000 0.000000 0.000000 -2.075763 -32.979681 -3.338217 12.357001 8.447429 -3.481109 2.228259 1.985847 -1.851814 0.955152 -0.141386 0.968684 0.000000 0.000000 0.000000 3.866271 1.326611 -1.295753 -10.724800 10.949286 5.834206 1.798017 11.262714 -1.767434 0.000000 0.000000 0.000000 2.975170 1.750917 -1.382367 0.850910 0.101783 -5.095617 -1.375582 -3.139353 -0.099331 -60.263176 3.463760 -46.269925 -179.800482 -73.178189 -179.358131 0.000000 0.000000 0.000000 2.891338 1.184478 -1.674409 3.606080 22.391974 -5.037008 -7.370704 -3.404321 2.411809 -45.094046 18.348569 52.473502 -177.734950 62.976735 176.755542 0.000000 0.000000 0.000000 
4.023112 78.215530 10.346581 0.000000 0.000000 0.000000 -2.989450 -41.504891 -3.596213 -50.549281 -1.281421 24.736976 64.853199 3.117305 -1.118955 -7.707449 -7.837672 -11.232513 -4.256142 -0.424352 2.290203 0.000000 0.000000 0.000000 -3.883582 -37.748007 -3.473662 -13.706452 -14.098876 -26.883840 54.939064 -2.677855 -5.562356 -23.391735 -17.682955 28.314221 -5.325233 -0.266977 -0.892090 0.000000 0.000000 0.000000 -3.239804 -35.630764 -3.230230 12.459617 8.113539 -2.716055 2.348494 1.846542 -1.661384 0.956434 -0.066851 1.018343 0.000000 0.000000 0.000000 3.831878 1.259389 -1.133573 -10.063802 11.483902 5.201932 2.744016 13.132933 -2.648341 0.000000 0.000000 0.000000 3.181431 1.627276 -1.196022 0.970461 0.255477 -5.224954 -1.152570 -3.067987 -0.257145 -60.650823 4.114024 -46.461402 179.889342 -73.781459 -179.821109 0.000000 0.000000 0.000000 3.040569 1.063151 -1.498448 3.682597 21.740914 -5.414625 -6.704547 -2.850838 2.502789 -47.557340 18.365583 56.363592 -177.375068 63.018290 176.352602 0.000000 0.000000 0.000000 
3.891177 77.871834 8.278904 0.000000 0.000000 0.000000 -3.765628 -43.074571 -3.483402 -50.403787 -1.544558 25.629919 64.122390 2.988098 -1.234106 -5.341655 -7.273520 -11.868027 -4.163612 -0.317024 2.007655 0.000000 0.000000 0.000000 -4.944931 -39.574109 -3.335797 -15.207242 -13.181478 -27.901005 55.829956 -2.706307 -4.989854 -23.857391 -17.422047 30.077493 -4.585018 -0.291253 -1.201484 0.000000 0.000000 0.000000 -4.037813 -37.592016 -2.972736 12.411880 7.790451 -1.969600 2.435768 1.684434 -1.450138 0.973023 -0.024769 1.016698 0.000000 0.000000 0.000000 3.767160 1.180836 -0.945359 -9.218180 11.878718 4.424792 3.612570 14.519947 -3.494572 0.000000 0.000000 0.000000 3.382009 1.484398 -1.004751 1.104499 0.435175 -5.668561 -1.083384 -2.898606 -0.425555 -60.461668 4.541213 -46.699622 179.567763 -74.679834 179.798801 0.000000 0.000000 0.000000 3.249229 0.958136 -1.288232 3.719010 20.866730 -5.686124 -6.112338 -2.520538 2.440073 -49.872518 18.304364 60.028729 -177.481605 63.199385 176.372778 0.000000 0.000000 0.000000 
3.673582 77.820503 6.323330 0.000000 0.000000 0.000000 -4.256055 -44.055823 -3.207078 -50.406786 -1.995186 26.142780 62.765293 2.916878 -1.192481 -2.616756 -6.968213 -12.052980 -3.710636 -0.116148 1.190294 0.000000 0.000000 0.000000 -5.822247 -40.830249 -3.114056 -16.220939 -12.581160 -28.555990 55.837701 -2.510307 -4.546266 -24.070813 -16.720411 31.251107 -3.691260 -0.252648 -1.180628 0.000000 0.000000 0.000000 -4.471485 -39.041556 -2.545629 12.270571 7.486143 -1.289040 2.496866 1.522613 -1.240128 0.938285 0.013431 0.919836 0.000000 0.000000 0.000000 3.692048 1.082016 -0.747485 -8.207948 12.185764 3.566835 4.386332 15.542053 -4.353044 0.000000 0.000000 0.000000 3.545283 1.334161 -0.819374 1.240692 0.624544 -6.296657 -1.129008 -2.813419 -0.534537 -59.687186 4.767105 -46.979916 179.249422 -75.463447 179.504038 0.000000 0.000000 0.000000 3.474190 0.868867 -1.071535 3.728679 19.901015 -5.871868 -5.535671 -2.356282 2.343459 -51.903892 18.465174 63.243078 -177.914448 63.856811 176.679495 0.000000 0.000000 0.000000 
3.376902 78.065170 4.442223 0.000000 0.000000 0.000000 -4.493322 -44.545442 -2.751370 -50.586191 -2.509717 26.185449 61.136525 2.857223 -0.943555 0.141176 -6.979108 -11.865890 -3.154126 0.117067 -0.002775 0.000000 0.000000 0.000000 -6.490377 -41.574108 -2.781812 -16.799147 -12.440576 -28.826482 55.263272 -2.488834 -4.104109 -24.557751 -16.021646 31.130182 -1.855674 -0.169005 -0.845882 0.000000 0.000000 0.000000 -4.651790 -40.103210 -1.976962 12.099555 7.226578 -0.725352 2.523938 1.372800 -1.061227 0.795061 0.070233 0.757558 0.000000 0.000000 0.000000 3.620136 0.981491 -0.573009 -7.057656 12.436041 2.728083 5.085083 16.302068 -5.223336 0.000000 0.000000 0.000000 3.654050 1.194706 -0.665964 1.370015 0.800867 -6.958600 -1.098601 -2.759921 -0.582520 -58.514879 4.804434 -47.318601 179.035514 -75.875164 179.367939 0.000000 0.000000 0.000000 3.677969 0.800683 -0.884766 3.746129 18.985172 -6.020188 -5.134087 -2.386261 2.265667 -53.575468 18.977343 65.976595 -178.487651 64.927833 177.122091 0.000000 0.000000 0.000000 
3.003942 78.496834 2.744423 0.000000 0.000000 0.000000 -4.665584 -44.695836 -2.156235 -50.915690 -2.830666 25.751567 59.701639 2.655492 -0.440342 2.566088 -7.405662 -11.494025 -2.747143 0.286753 -1.182488 0.000000 0.000000 0.000000 -6.910884 -41.943915 -2.280608 -17.163932 -12.604608 -28.865493 54.491888 -2.687234 -3.652481 -25.187706 -15.472986 30.018780 -0.207442 -0.071682 -0.394734 0.000000 0.000000 0.000000 -4.692673 -40.840747 -1.283539 11.957049 7.031497 -0.328649 2.533178 1.252124 -0.938162 0.610947 0.126403 0.565276 0.000000 0.000000 0.000000 3.574755 0.890562 -0.447667 -5.846291 12.644800 1.982359 5.775577 16.901363 -6.068210 0.000000 0.000000 0.000000 3.711293 1.081043 -0.569206 1.490236 0.956550 -7.529173 -1.017969 -2.756029 -0.646351 -57.259924 4.703245 -47.715661 178.919756 -75.867583 179.331657 0.000000 0.000000 0.000000 3.821129 0.753189 -0.753816 3.775180 18.211096 -6.191027 -4.844983 -2.443571 2.220851 -54.884617 19.790603 68.356369 -178.935138 66.076896 177.467494 0.000000 0.000000 0.000000 
2.623814 79.031181 1.237335 0.000000 0.000000 0.000000 -4.832599 -44.723092 -1.460750 -51.272690 -2.746978 24.828509 58.639469 2.186000 0.269880 4.171964 -8.333546 -11.205696 -2.828824 0.333871 -1.892121 0.000000 0.000000 0.000000 -7.119208 -42.139412 -1.612254 -17.606660 -12.826474 -28.823016 53.882799 -2.980973 -3.294344 -25.389732 -15.074482 28.774474 0.097529 -0.005875 -0.057023 0.000000 0.000000 0.000000 -4.690013 -41.476669 -0.511751 11.879593 6.917472 -0.111350 2.535648 1.168147 -0.869753 0.416653 0.272868 0.387283 0.000000 0.000000 0.000000 3.528546 0.819553 -0.383023 -4.674390 12.814734 1.385444 6.453943 17.402654 -6.812455 0.000000 0.000000 0.000000 3.718219 0.993120 -0.531602 1.585752 1.103589 -7.913650 -0.845204 -2.737849 -0.733127 -56.118883 4.551297 -48.095532 178.879758 -75.628649 179.351834 0.000000 0.000000 0.000000 3.898650 0.725812 -0.686446 3.812050 17.631297 -6.407854 -4.588113 -2.469981 2.193467 -55.810360 20.699421 70.469500 -179.191393 67.007789 177.670323 0.000000 0.000000 0.000000 
2.253136 79.548370 -0.079948 0.000000 0.000000 0.000000 -5.056978 -44.749531 -0.738679 -51.580824 -2.144754 23.577627 58.055262 1.157750 1.210535 4.911041 -9.878057 -11.700745 -3.760024 0.275654 -1.635758 0.000000 0.000000 0.000000 -7.177056 -42.316406 -0.817929 -18.299243 -12.781426 -28.732898 53.455212 -3.173659 -3.109282 -25.169659 -14.792880 27.918878 -0.630573 0.008093 0.065535 0.000000 0.000000 0.000000 -4.782502 -42.043400 0.187318 11.876574 6.880237 -0.056484 2.539138 1.110654 -0.837337 0.329194 0.330323 0.348219 0.000000 0.000000 0.000000 3.468993 0.769502 -0.364240 -3.600942 12.966332 0.970638 7.164381 17.825103 -7.391334 0.000000 0.000000 0.000000 3.696182 0.929409 -0.539705 1.650143 1.236067 -8.083977 -0.640976 -2.615740 -0.834506 -55.317193 4.456231 -48.406063 178.915426 -75.390767 179.420354 0.000000 0.000000 0.000000 3.925498 0.713884 -0.671273 3.847311 17.285312 -6.684529 -4.392397 -2.504581 2.215223 -56.398781 21.488016 72.303932 -179.218768 67.580364 177.680732 0.000000 0.000000 0.000000 
1.967358 79.976013 -1.094318 0.000000 0.000000 0.000000 -5.326904 -44.984097 -0.091455 -51.560798 -0.866244 22.217885 57.871906 -0.130318 2.159181 4.519166 -11.669992 -12.626017 -5.324152 0.072671 -0.431088 0.000000 0.000000 0.000000 -7.101495 -42.545334 -0.003154 -19.220929 -12.438813 -28.587350 53.099670 -3.238037 -3.110147 -25.043753 -14.575506 27.284686 -1.270388 0.000213 -0.007475 0.000000 0.000000 0.000000 -4.938350 -42.639993 0.750290 11.925376 6.907056 -0.095994 2.553684 1.080450 -0.817843 0.333980 0.282875 0.399041 0.000000 0.000000 0.000000 3.395062 0.742887 -0.366463 -2.689609 13.091821 0.723044 7.918225 18.164068 -7.781223 0.000000 0.000000 0.000000 3.657776 0.885252 -0.566522 1.679543 1.378255 -8.089212 -0.525063 -2.389346 -0.923424 -54.873887 4.514446 -48.619967 179.012865 -75.241815 179.521673 0.000000 0.000000 0.000000 3.916821 0.716486 -0.673085 3.884003 17.126928 -6.990290 -4.204544 -2.534740 2.165927 -56.639931 22.032804 73.836667 -179.127216 67.852342 177.599521 0.000000 0.000000 0.000000 
1.782638 80.311134 -1.794193 0.000000 0.000000 0.000000 -5.574302 -45.492916 0.395369 -51.129447 0.874042 20.967255 58.061860 -1.197416 2.907728 3.157032 -13.268967 -13.252553 -6.919087 -0.279962 1.220372 0.000000 0.000000 0.000000 -6.994381 -42.947212 0.658124 -20.293378 -11.951845 -28.342177 53.021341 -3.374431 -3.137791 -25.236053 -14.465038 26.398387 -1.040874 0.005779 -0.148227 0.000000 0.000000 0.000000 -5.157442 -43.321858 1.092358 11.985730 6.981549 -0.141791 2.579465 1.068774 -0.786046 0.380567 0.204151 0.527857 0.000000 0.000000 0.000000 3.306519 0.739124 -0.362087 -1.955334 13.199272 0.621388 8.691117 18.405956 -7.979270 0.000000 0.000000 0.000000 3.615521 0.858070 -0.578076 1.669671 1.533110 -8.002993 -0.477561 -2.035142 -0.970078 -54.671976 4.758080 -48.779886 179.205968 -75.135837 179.707140 0.000000 0.000000 0.000000 3.899518 0.732453 -0.661249 3.935260 17.123185 -7.268453 -4.074849 -2.565868 2.085621 -56.522565 22.308323 75.017962 -179.043929 67.928028 177.550016 0.000000 0.000000 0.000000 
